<svg width="768" height="400" viewBox="0 0 768 400" xmlns="http://www.w3.org/2000/svg">
  <defs>
    <linearGradient id="bgGradient" x1="50%" y1="0%" x2="50%" y2="100%">
      <stop offset="0%" stop-color="#2f2f33" />
      <stop offset="55%" stop-color="#8d949c" />
      <stop offset="100%" stop-color="#2f2f33" />
    </linearGradient>
    <filter id="glow" x="-20%" y="-20%" width="140%" height="140%">
      <feGaussianBlur stdDeviation="6" result="blur" />
      <feMerge>
        <feMergeNode in="blur" />
        <feMergeNode in="SourceGraphic" />
      </feMerge>
    </filter>
  </defs>
  <rect width="768" height="400" fill="url(#bgGradient)" />
  <g transform="translate(60 60)" fill="none" stroke="#f9fafc" stroke-width="6" stroke-linecap="round" stroke-linejoin="round" filter="url(#glow)">
    <circle cx="120" cy="120" r="110" />
    <rect x="56" y="56" width="128" height="128" rx="22" />
    <path d="M120 78 L150 96 L120 114 L90 96 Z" />
    <path d="M120 114 L150 96 V134 L120 160 Z" />
    <path d="M120 114 L120 160 L90 134 V96 Z" />
    <circle cx="184" cy="184" r="32" />
    <path d="M184 160 v24 l20 12" />
    <path d="M184 184 l-20 12" />
  </g>
  <text x="320" y="150" fill="#f9fafc" font-family="'Inter', 'Segoe UI', sans-serif" font-size="80" font-weight="600" letter-spacing="4" filter="url(#glow)">MAKERS</text>
  <text x="320" y="250" fill="#f9fafc" font-family="'Inter', 'Segoe UI', sans-serif" font-size="80" font-weight="600" letter-spacing="4" filter="url(#glow)">VAULT</text>
</svg>
